# xmcd
#
# Track frame offsets:
#	150
#	13088
#	26786
#	42647
#	56407
#	78966
#	92699
#	104586
#	120694
#	143580
#	157466
#	168503
#	185837
#	202575
#
# Disc length: 2830 seconds
#
# Revision: 1
# Processed by: cddbd v1.5.2PL0 Copyright (c) Steve Scherf et al.
# Submitted via: EasyCDDAExtractor 11.0.2.1
#
DISCID=c10b0c0e
DTITLE=Ray Collins ot Club - Honk My Horn
DYEAR=2004
DGENRE=Swing - Modern
TTITLE0=PisteKnock Put BoogieAudio 01
TTITLE1=All Alone
TTITLE2=Run Baby Run
TTITLE3=There Goes My Pride
TTITLE4=What Did I Do Last Night
TTITLE5=Mighty Hungry Man
TTITLE6=Come On Over
TTITLE7=Honk My Horn
TTITLE8=Wedding Blues
TTITLE9=Mine All Mine
TTITLE10=Dungaree Hop
TTITLE11=Bounce 2
TTITLE12=Big Town Blues
TTITLE13=Out of My Mind
EXTD=YEAR: 2004
EXTT0=
EXTT1=
EXTT2=
EXTT3=
EXTT4=
EXTT5=
EXTT6=
EXTT7=
EXTT8=
EXTT9=
EXTT10=
EXTT11=
EXTT12=
EXTT13=
PLAYORDER=
